<svg height="50" viewBox="0 0 64 64" width="50" xmlns="http://www.w3.org/2000/svg">
    <g id="Security-2" data-name="Security">
        <path
            d="m37 39v4.35a12.009 12.009 0 0 0 5.64 10.18l2.36 1.47 2.36-1.47a12.009 12.009 0 0 0 5.64-10.18v-4.35l-8-4z"
            fill="#b9dcff" />
        <path d="m13 45h16a16 16 0 0 1 24-13.86v-16.14a2.006 2.006 0 0 0 -2-2h-38a4 4 0 0 0 -4 4v24a4 4 0 0 0 4 4z"
            fill="#b9dcff" />
        <g fill="#2e58ff">
            <path
                d="m54 30.6v-15.6a3 3 0 0 0 -2-2.816v-3.184a3 3 0 0 0 -3-3h-28a1 1 0 0 1 -1-1 3 3 0 0 0 -3-3h-12a3 3 0 0 0 -3 3v38a3 3 0 0 0 3 3h23.051a16.989 16.989 0 1 0 25.949-15.4zm-50 12.4v-38a1 1 0 0 1 1-1h12a1 1 0 0 1 1 1 3 3 0 0 0 3 3h28a1 1 0 0 1 1 1v3h-37a5.006 5.006 0 0 0 -5 5v24a4.948 4.948 0 0 0 1.026 3h-4.026a1 1 0 0 1 -1-1zm6-2v-24a3 3 0 0 1 3-3h38a1 1 0 0 1 1 1v14.526a16.947 16.947 0 0 0 -23.949 14.474h-15.051a3 3 0 0 1 -3-3zm35 19a15 15 0 1 1 15-15 15.017 15.017 0 0 1 -15 15z" />
            <path
                d="m53.447 38.1-8-4a1 1 0 0 0 -.894 0l-8 4a1 1 0 0 0 -.553.9v4.349a12.929 12.929 0 0 0 6.109 11.024l2.361 1.475a1 1 0 0 0 1.06 0l2.361-1.475a12.929 12.929 0 0 0 6.109-11.024v-4.349a1 1 0 0 0 -.553-.9zm-1.447 5.249a10.938 10.938 0 0 1 -5.17 9.328l-1.83 1.144-1.83-1.144a10.938 10.938 0 0 1 -5.17-9.328v-3.731l7-3.5 7 3.5z" />
            <path d="m42.879 43.464-1.414 1.414 2.828 2.829a1 1 0 0 0 1.414 0l5.071-5.071-1.414-1.414-4.364 4.364z" />
            <path d="m13 16a1 1 0 0 0 -1 1v4h2v-3h3v-2z" />
            <path d="m12 23h2v2h-2z" />
        </g>
    </g>
</svg>