<svg id="Capa_1" enable-background="new 0 0 512 512" height="20" viewBox="0 0 512 512" width="20" xmlns="http://www.w3.org/2000/svg"><path d="m512 189.43-256 322.57-256-322.57 67.1-49.5h377.8z" fill="#fdbf00"/><path d="m512 189.43-256 322.57v-372.07h188.9z" fill="#ff9100"/><path d="m344.85 64.89-17.7 24.22h-142.3l-17.7-24.22 88.85-64.89z" fill="#fdbf00"/><path d="m344.85 64.89-17.7 24.22h-71.15v-89.11z" fill="#ff9100"/><path d="m61 62v191.74l195 258.26 195-258.12v-191.88z" fill="#ececf1"/><path d="m451 62v191.88l-195 258.12v-450z" fill="#cfdde2"/><path d="m0 189.426v322.574l143-62 83-73z" fill="#ffda2d"/><path d="m286 377 92 78 134 57v-322.574z" fill="#fdbf00"/><path d="m512 512h-512l226-135h60z" fill="#fff261"/><path d="m512 512h-256v-135h30z" fill="#ffda2d"/><path d="m256 122c-57.9 0-105 47.1-105 105s47.1 105 105 105c12 0 23.77-2.01 35-5.98l-10-28.28c-8 2.83-16.42 4.26-25 4.26-41.35 0-75-33.64-75-75s33.65-75 75-75 75 33.64 75 75c0 8.27-6.73 15-15 15s-15-6.73-15-15v-45h-45c-24.81 0-45 20.19-45 45s20.19 45 45 45c11.52 0 22.03-4.35 30-11.5 7.97 7.15 18.48 11.5 30 11.5 24.81 0 45-20.19 45-45 0-57.9-47.1-105-105-105zm15 105c0 8.27-6.73 15-15 15s-15-6.73-15-15 6.73-15 15-15h15z" fill="#ff8856"/><g fill="#ff4949"><path d="m281 297.74 10 28.28c-11.23 3.97-23 5.98-35 5.98v-30c8.58 0 17-1.43 25-4.26z"/><path d="m361 227c0 24.81-20.19 45-45 45-11.52 0-22.03-4.35-30-11.5-7.97 7.15-18.48 11.5-30 11.5v-30c8.27 0 15-6.73 15-15v-15h-15v-30h45v45c0 8.27 6.73 15 15 15s15-6.73 15-15c0-41.36-33.65-75-75-75v-30c57.9 0 105 47.1 105 105z"/></g></svg>