<?xml version="1.0" encoding="iso-8859-1"?>
<!-- Generator: Adobe Illustrator 22.1.0, SVG Export Plug-In . SVG Version: 6.00 Build 0)  -->
<svg xmlns="http://www.w3.org/2000/svg" xmlns:xlink="http://www.w3.org/1999/xlink" version="1.1" id="Layer_1_1_" x="0px" y="0px" viewBox="0 0 64 64" style="enable-background:new 0 0 64 64;" xml:space="preserve" width="20" height="25">
<g>
	<g>
		<path style="fill:#969FAA;" d="M36,54v4c0,2.21-1.79,4-4,4H6c-2.21,0-4-1.79-4-4v-4H36z"/>
		<path style="fill:#969FAA;" d="M36,6v4H2V6c0-2.21,1.79-4,4-4h26C34.21,2,36,3.79,36,6z"/>
		<path style="fill:#69D6F4;" d="M36,17l-0.01,0.05C35.79,17.02,35.6,17,35.4,17c-0.9,0-1.78,0.32-2.47,0.9L32,18.67V14H6v36h26    V33.2c1.23,1.65,2.57,3.22,4,4.69V54H2V10h34V17z"/>
		<path style="fill:#E6E9ED;" d="M32,33.2V50H6V14h26v4.67l-0.18,0.15L30.39,20C28.88,21.27,28,23.14,28,25.12v0.08    c0,1.18,0.31,2.34,0.91,3.35C29.85,30.16,30.88,31.71,32,33.2z"/>
		<path style="fill:#FCD770;" d="M28,39v2H10v-2c0-1.78,1.18-3.34,2.88-3.82L17,34v-1.55c-1.19-0.7-2-1.97-2-3.45v-2    c0-2.33,1.99-4.19,4.36-3.98C21.46,23.2,23,25.1,23,27.21V29c0,1.48-0.81,2.75-2,3.45V34l4.12,1.18C26.82,35.66,28,37.22,28,39z"/>
		<path style="fill:#FF826E;" d="M32,33.2c-1.12-1.49-2.15-3.04-3.09-4.65C28.31,27.54,28,26.38,28,25.2v-0.08    c0-1.98,0.88-3.85,2.39-5.12l1.43-1.18l8.73,8.73l-0.43,0.4C39.41,28.62,39,29.56,39,30.53c0,0.94,0.37,1.84,1.04,2.51l1.92,1.92    c0.67,0.67,1.57,1.04,2.51,1.04c0.97,0,1.91-0.41,2.58-1.12l0.4-0.43l8.73,8.73L55,44.61C53.73,46.12,51.86,47,49.88,47    c-1.23,0-2.44-0.34-3.48-0.99l-1.1-0.67c-2.2-1.36-4.28-2.88-6.22-4.55L36,37.89C34.57,36.42,33.23,34.85,32,33.2z"/>
		<path style="fill:#E6E9ED;" d="M58,39.6c0,0.9-0.32,1.78-0.9,2.47l-0.92,1.11l-8.73-8.73l1.51-1.61C49.47,32.3,50.17,32,50.9,32    c0.7,0,1.38,0.28,1.88,0.78l4.09,4.09C57.59,37.59,58,38.58,58,39.6z"/>
		<path style="fill:#E6E9ED;" d="M32,18.67l0.93-0.77c0.69-0.58,1.57-0.9,2.47-0.9c0.2,0,0.39,0.02,0.59,0.05    c0.8,0.12,1.56,0.5,2.14,1.08l4.09,4.09c0.5,0.5,0.78,1.18,0.78,1.88c0,0.73-0.3,1.43-0.84,1.94l-1.61,1.51l-8.73-8.73L32,18.67z"/>
	</g>
	<g>
		<rect x="15" y="5" width="8" height="2"/>
		<rect x="25" y="5" width="2" height="2"/>
		<rect x="11" y="5" width="2" height="2"/>
		<rect x="16" y="57" width="6" height="2"/>
		<path d="M53.485,32.071C52.794,31.38,51.876,31,50.9,31c-1.006,0-1.978,0.421-2.667,1.155l-1.915,2.042    c-0.94,1.005-2.673,1.034-3.649,0.059l-1.926-1.926C40.264,31.85,40,31.212,40,30.534c0-0.7,0.292-1.375,0.803-1.853l2.042-1.915    C43.579,26.078,44,25.106,44,24.1c0-0.976-0.38-1.894-1.071-2.584l-4.09-4.09c-0.527-0.527-1.154-0.919-1.839-1.157V6    c0-2.757-2.243-5-5-5H6C3.243,1,1,3.243,1,6v52c0,2.757,2.243,5,5,5h26c2.757,0,5-2.243,5-5V37.481l-0.283-0.291    c-2.675-2.75-5.013-5.825-6.947-9.14c-0.504-0.864-0.77-1.85-0.77-2.934c0-1.683,0.741-3.266,2.034-4.344l0.723-0.602l7.387,7.387    C38.424,28.38,38,29.433,38,30.534c0,1.213,0.472,2.353,1.33,3.21l1.926,1.926c0.857,0.858,1.998,1.33,3.21,1.33    c1.101,0,2.154-0.425,2.976-1.144l7.387,7.387l-0.602,0.723C53.149,45.258,51.566,46,49.883,46c-1.047,0-2.071-0.29-2.963-0.839    l-1.096-0.674c-2.141-1.318-4.19-2.817-6.092-4.457l-1.306,1.515c1.981,1.708,4.118,3.271,6.349,4.646l1.097,0.674    C47.079,47.607,48.466,48,49.883,48c2.278,0,4.421-1.004,5.88-2.754l2.109-2.531C58.6,41.843,59,40.736,59,39.601    c0-1.299-0.506-2.521-1.425-3.439L53.485,32.071z M6,3h26c1.654,0,3,1.346,3,3v3H3V6C3,4.346,4.346,3,6,3z M32,61H6    c-1.654,0-3-1.346-3-3v-3h32v3C35,59.654,33.654,61,32,61z M35,53H3V11h32v5.017c-0.706,0.058-1.387,0.277-2,0.625V13H5v38h28    V36.066c0.645,0.761,1.31,1.505,2,2.226V53z M29.754,19.237C28.004,20.695,27,22.838,27,25.201c0,1.353,0.36,2.687,1.042,3.856    c0.901,1.545,1.895,3.033,2.958,4.469V49H7V15h24v3.198L29.754,19.237z M33.565,18.664c1.101-0.917,2.845-0.838,3.859,0.175    l4.09,4.09C41.828,23.242,42,23.658,42,24.1c0,0.456-0.19,0.896-0.523,1.208l-0.906,0.85l-7.271-7.271L33.565,18.664z     M56.336,41.435l-0.222,0.266l-7.271-7.271l0.85-0.906c0.613-0.656,1.742-0.673,2.378-0.038l4.09,4.09    C56.702,38.116,57,38.835,57,39.601C57,40.27,56.764,40.921,56.336,41.435z"/>
		<path d="M59.778,16.222c-4.289-4.289-11.268-4.289-15.557,0l1.414,1.414c3.509-3.509,9.219-3.509,12.729,0    c3.509,3.509,3.509,9.219,0,12.729l1.414,1.414C64.067,27.489,64.067,20.511,59.778,16.222z"/>
		<path d="M56.95,28.95c2.729-2.729,2.729-7.17,0-9.899c-2.729-2.729-7.17-2.729-9.899,0l1.414,1.414    c1.949-1.949,5.122-1.949,7.071,0c1.949,1.95,1.949,5.122,0,7.071L56.95,28.95z"/>
		<path d="M22,33.246v-0.266c1.246-0.939,2-2.416,2-3.979v-1.792c0-2.688-2.001-4.966-4.556-5.188    c-1.401-0.122-2.792,0.35-3.823,1.294S14,25.603,14,27v2c0,1.563,0.754,3.041,2,3.979v0.266l-3.39,0.969    C10.484,34.821,9,36.79,9,39v3h20v-3c0-2.21-1.484-4.179-3.61-4.786L22,33.246z M27,39v1H11v-1c0-1.322,0.888-2.5,2.16-2.863    L18,34.754V31.87l-0.497-0.289C16.562,31.033,16,30.068,16,29v-2c0-0.839,0.355-1.645,0.973-2.212    c0.627-0.575,1.44-0.848,2.298-0.776C20.801,24.145,22,25.548,22,27.208V29c0,1.068-0.562,2.033-1.503,2.581L20,31.87v2.884    l4.84,1.383C26.112,36.5,27,37.678,27,39z"/>
	</g>
</g>
</svg>
